<svg xmlns="http://www.w3.org/2000/svg" width="246" height="11.009" viewBox="0 0 246 11.009"><defs><style>.a{fill:#ebaaff;}</style></defs><path class="a" d="M30.347,78.2H30V89.209h.836V78.2h-.489Z" transform="translate(-30 -78.2)"/><path class="a" d="M66.5,83.09a2,2,0,0,0-.833-.507,3.961,3.961,0,0,0-1.285-.185H60.56v8.429h3.825a4.164,4.164,0,0,0,1.3-.169,2.008,2.008,0,0,0,.846-.5,1.611,1.611,0,0,0,.409-.781,3.911,3.911,0,0,0,.086-.849V84.735a3.689,3.689,0,0,0-.1-.861A1.74,1.74,0,0,0,66.5,83.09Zm-2.119,6.9H61.4V83.225h2.989a3.158,3.158,0,0,1,.984.123,1.251,1.251,0,0,1,.514.307.953.953,0,0,1,.231.434,2.715,2.715,0,0,1,.074.646V88.53a2.85,2.85,0,0,1-.068.646.867.867,0,0,1-.221.412,1.248,1.248,0,0,1-.507.283A3.382,3.382,0,0,1,64.385,89.99Z" transform="translate(-51.163 -81.106)"/><path class="a" d="M109.637,82.4h-.347v8.429h5.52v-.836h-4.683V86.976h3.524v-.836h-3.524v-2.9h4.683V82.4h-5.172Z" transform="translate(-84.908 -81.108)"/><path class="a" d="M154.077,82.4h-.347v8.429h.836V87.477h3.266v-.836h-3.266v-3.4h4.428V82.4h-4.917Z" transform="translate(-115.682 -81.108)"/><path class="a" d="M195.217,82.4h-.347v.836h2.22v6.756h-2.22v.836h5.249v-.836h-2.193V83.236h2.193V82.4h-4.9Z" transform="translate(-144.171 -81.108)"/><path class="a" d="M244.124,85.945h0l-.99-2.334a3.8,3.8,0,0,0-.4-.753,1.073,1.073,0,0,0-.947-.418h-1.405a1.129,1.129,0,0,0-.966.4,3.384,3.384,0,0,0-.4.753l-.923,2.349a4.521,4.521,0,0,0-.2.71,4.386,4.386,0,0,0-.071.806v3.383h.836v-2.46h4.9v2.46h.836V87.455a4.329,4.329,0,0,0-.071-.8,4.887,4.887,0,0,0-.194-.707Zm-4.065-2.586c.043-.065.151-.1.308-.1h1.405c.218,0,.271.074.286.1a3.478,3.478,0,0,1,.308.563l.984,2.325a4.58,4.58,0,0,1,.148.557,3.565,3.565,0,0,1,.058.652v.1h-4.9v-.1a3.568,3.568,0,0,1,.058-.652,4.584,4.584,0,0,1,.151-.566l.923-2.34A2.916,2.916,0,0,1,240.059,83.359Z" transform="translate(-173.914 -81.133)"/><path class="a" d="M292.5,82.4h-.347v5.48l-4.668-5.249h0a1.187,1.187,0,0,0-.169-.145.526.526,0,0,0-.292-.086.538.538,0,0,0-.323.114.486.486,0,0,0-.194.406v7.924h.836V83.728l4.822,5.409v1.691H293V82.4Z" transform="translate(-207.631 -81.108)"/><path class="a" d="M337.778,82.4a3.029,3.029,0,0,0-2.07.523,2.249,2.249,0,0,0-.569,1.7v4a2.22,2.22,0,0,0,.56,1.67,3.034,3.034,0,0,0,2.079.526h2.74V89.98h-2.74c-1.006,0-1.362-.188-1.485-.308a1.406,1.406,0,0,1-.307-1.061v-4a1.417,1.417,0,0,1,.329-1.082,2.3,2.3,0,0,1,1.473-.308h2.74V82.4h-2.74Z" transform="translate(-241.307 -81.108)"/><path class="a" d="M379.277,82.4h-.347v8.429h5.523v-.836h-4.686V86.976h3.524v-.836h-3.524v-2.9h4.686V82.4h-5.175Z" transform="translate(-271.632 -81.108)"/><path class="a" d="M452.147,82.4H451.8v1.993a5.163,5.163,0,0,1-.028.544.547.547,0,0,1-.1.289l-1.436,1.94a1.135,1.135,0,0,1-.326.308.634.634,0,0,1-.326.08h-.372a.8.8,0,0,1-.338-.08.741.741,0,0,1-.289-.277l-1.4-1.95a.68.68,0,0,1-.108-.308,4.747,4.747,0,0,1-.028-.529V82.4H446.2v1.993a4.29,4.29,0,0,0,.031.637,1.351,1.351,0,0,0,.252.673l1.387,1.928a1.931,1.931,0,0,0,.59.56,1.445,1.445,0,0,0,.535.175v2.46h.833v-2.46a1.418,1.418,0,0,0,.5-.169,1.956,1.956,0,0,0,.59-.557l1.43-1.931a1.28,1.28,0,0,0,.258-.689c.015-.2.025-.406.025-.615v-2h-.492Z" transform="translate(-318.215 -81.108)"/><path class="a" d="M499.372,82.475a5.445,5.445,0,0,0-5.028,0,2.119,2.119,0,0,0-.717,1.654v4.231a2.119,2.119,0,0,0,.717,1.654,3.782,3.782,0,0,0,2.509.615,3.884,3.884,0,0,0,2.519-.615,2.1,2.1,0,0,0,.735-1.654V84.132A2.106,2.106,0,0,0,499.372,82.475ZM496.853,89.8a3.042,3.042,0,0,1-1.937-.409,1.292,1.292,0,0,1-.452-1.033V84.132a1.282,1.282,0,0,1,.452-1.033,3.035,3.035,0,0,1,1.937-.409,3.1,3.1,0,0,1,1.953.412,1.264,1.264,0,0,1,.47,1.03v4.228a1.264,1.264,0,0,1-.464,1.03A3.056,3.056,0,0,1,496.853,89.8Z" transform="translate(-351.058 -80.735)"/><path class="a" d="M548.234,82.4h-.344v6.335a1.285,1.285,0,0,1-.455,1.033,4.755,4.755,0,0,1-3.865,0,1.307,1.307,0,0,1-.455-1.036V82.4h-.836v6.335a2.134,2.134,0,0,0,.71,1.654,3.742,3.742,0,0,0,2.5.615A3.855,3.855,0,0,0,548,90.389a2.122,2.122,0,0,0,.72-1.654V82.4h-.492Z" transform="translate(-384.748 -81.108)"/><path class="a" d="M596.481,86.757a1.175,1.175,0,0,0,.092-.188,3.146,3.146,0,0,0,.2-1.212v-.99a2.066,2.066,0,0,0-.486-1.393,1.879,1.879,0,0,0-1.495-.584H591.18v8.429h.836V87.495h3.721a1.427,1.427,0,0,1,.969.261,1.015,1.015,0,0,1,.274.8v2.266h.836V88.552a1.676,1.676,0,0,0-1.322-1.8Zm-4.465-3.53h2.768a1.088,1.088,0,0,1,.864.308,1.23,1.23,0,0,1,.28.846v.993a1.777,1.777,0,0,1-.24,1.018c-.163.234-.581.283-.9.283h-2.768Z" transform="translate(-418.613 -81.099)"/><path class="a" d="M671.135,82.4h-.243a.891.891,0,0,0-.366.08.8.8,0,0,0-.347.332l-1.74,2.651a3.557,3.557,0,0,1-.308.434h0a.584.584,0,0,1-.129,0,.338.338,0,0,1-.135-.018,3.519,3.519,0,0,1-.307-.427l-1.75-2.651a.772.772,0,0,0-.347-.308.9.9,0,0,0-.372-.08h-.243a.68.68,0,0,0-.541.228.827.827,0,0,0-.178.563V90.84h.836v-7.6h.126l.018.031,1.747,2.651a4.543,4.543,0,0,0,.434.578,1.106,1.106,0,0,0,1.4,0,4.186,4.186,0,0,0,.434-.575l1.747-2.638a.305.305,0,0,1,.031-.043h.123v7.592h.836V83.2a.848.848,0,0,0-.178-.566A.7.7,0,0,0,671.135,82.4Z" transform="translate(-469.127 -81.108)"/><path class="a" d="M716.517,82.4h-.347v.836h2.22v6.756h-2.22v.836h5.249v-.836h-2.193V83.236h2.193V82.4h-4.9Z" transform="translate(-505.168 -81.108)"/><path class="a" d="M765.816,82.4h-.344v5.48L760.8,82.631h0a1.01,1.01,0,0,0-.166-.145.526.526,0,0,0-.292-.086.538.538,0,0,0-.323.114.486.486,0,0,0-.194.406v7.924h.836V83.728l4.822,5.409v1.691h.836V82.4h-.492Z" transform="translate(-535.401 -81.108)"/><path class="a" d="M815.362,83.892a1.71,1.71,0,0,0-.412-.784,2.014,2.014,0,0,0-.836-.507,3.939,3.939,0,0,0-1.295-.175H809v8.429h3.813a4.164,4.164,0,0,0,1.3-.169,2.008,2.008,0,0,0,.846-.5,1.666,1.666,0,0,0,.409-.781,4.1,4.1,0,0,0,.086-.849v-3.8A3.716,3.716,0,0,0,815.362,83.892Zm-2.543,6.116h-2.977V83.243h2.977a3.157,3.157,0,0,1,.984.123,1.269,1.269,0,0,1,.51.307.966.966,0,0,1,.221.434,2.55,2.55,0,0,1,.077.646v3.795a2.848,2.848,0,0,1-.071.646.864.864,0,0,1-.218.412,1.264,1.264,0,0,1-.51.283A3.383,3.383,0,0,1,812.819,90.009Z" transform="translate(-569.452 -81.125)"/></svg>